version 1
nodes
0 "ValveBiped.Bip01_Pelvis" -1
1 "ValveBiped.Bip01_L_Thigh" 0
2 "ValveBiped.Bip01_L_Calf" 1
3 "ValveBiped.Bip01_L_Foot" 2
4 "ValveBiped.Bip01_L_Toe0" 3
5 "ValveBiped.Bip01_R_Thigh" 0
6 "ValveBiped.Bip01_R_Calf" 5
7 "ValveBiped.Bip01_R_Foot" 6
8 "ValveBiped.Bip01_R_Toe0" 7
9 "ValveBiped.Bip01_Spine" 0
10 "ValveBiped.Bip01_Spine1" 9
11 "ValveBiped.Bip01_Spine2" 10
12 "ValveBiped.Bip01_Spine4" 11
13 "ValveBiped.Bip01_Neck1" 12
14 "ValveBiped.Bip01_Head1" 13
15 "ValveBiped.Bip01_L_Clavicle" 12
16 "ValveBiped.Bip01_L_UpperArm" 15
17 "ValveBiped.Bip01_L_Forearm" 16
18 "ValveBiped.Bip01_L_Hand" 17
19 "ValveBiped.Bip01_L_Finger2" 18
20 "ValveBiped.Bip01_L_Finger1" 18
21 "ValveBiped.Bip01_L_Finger0" 18
22 "ValveBiped.Bip01_R_Clavicle" 12
23 "ValveBiped.Bip01_R_UpperArm" 22
24 "ValveBiped.Bip01_R_Forearm" 23
25 "ValveBiped.Bip01_R_Hand" 24
26 "ValveBiped.Bip01_R_Finger2" 25
27 "ValveBiped.Bip01_R_Finger1" 25
28 "ValveBiped.Bip01_R_Finger0" 25
end
skeleton
time 0
0  0.000000 0.000000 0.000000  0.000000 -0.000000 0.000000
1  3.625659 0.000000 0.000000  -1.570795 0.006531 -1.605936
2  17.934231 -0.000000 0.000015  0.000003 0.000002 0.059193
3  16.552132 -0.000184 0.000020  0.000449 -0.113854 -1.283199
4  5.708385 0.000032 -0.000026  0.027711 -0.036470 -0.347474
5  -3.625659 0.000000 0.000000  -1.570797 0.006531 -1.535657
6  17.934229 -0.000000 -0.000007  0.000001 -0.000000 0.059202
7  16.552128 -0.000339 0.000026  0.010735 0.114620 -1.283023
8  5.708386 -0.000001 0.000011  -0.118266 0.032197 -0.355317
9  0.000000 3.859306 0.127612  1.570796 0.013033 1.570789
10  4.399117 -0.000002 0.000000  -0.000001 0.000007 -0.144086
11  3.698238 0.000000 -0.000000  0.000000 -0.000000 -0.134140
12  5.656147 0.000009 -0.000000  0.000000 0.000000 0.326136
13  5.507968 0.000030 -0.000002  3.141590 -0.000000 0.327560
14  3.999069 0.000015 0.000001  -0.000000 -0.000001 0.351494
15  4.644859 1.703194 1.500000  0.859871 -1.058501 -2.529662
16  5.552734 -0.000006 -0.000001  -1.259420 -0.145641 -0.882084
17  11.061714 -0.000026 -0.000005  -0.000002 -0.000002 -0.136592
18  11.534478 -0.000060 -0.000050  1.227462 0.165596 0.075027
19  4.630782 0.044901 0.354261  0.006373 -0.023588 -0.675375
20  4.414575 0.011143 1.290116  0.006375 -0.023587 -0.223060
21  1.082557 -0.425825 1.212162  1.511477 -0.670013 -0.572369
22  4.644862 1.703193 -1.500002  -0.909418 1.047436 -2.502933
23  5.552732 -0.000003 -0.000000  1.293092 0.212692 -0.875901
24  11.061712 -0.000049 -0.000001  -0.000003 -0.000000 -0.136589
25  11.534468 -0.000084 0.000011  -1.230754 -0.166037 0.076862
26  4.630805 0.046194 -0.354098  -0.002845 0.023588 -0.675359
27  4.414602 0.015739 -1.290067  -0.002846 0.023587 -0.223052
28  1.082584 -0.421549 -1.213656  -1.507687 0.671920 -0.570001
time 1
0  0.000000 0.000000 0.000000  0.000000 -0.000000 0.000000
1  3.455587 -0.000001 0.000000  -1.570795 0.006531 -1.605936
2  16.572346 -0.000044 0.000009  0.000003 0.000002 0.059193
3  16.265837 0.000079 0.000037  0.000449 -0.113854 -1.283199
4  5.897424 0.001082 0.004544  0.027711 -0.036470 -0.347475
5  -3.455587 -0.000001 -0.000000  -1.570797 0.006531 -1.535657
6  16.572346 -0.000041 -0.000001  0.000001 -0.000000 0.059202
7  16.265835 -0.000063 0.000002  0.010735 0.114620 -1.283023
8  5.897427 -0.000002 0.000005  -0.118266 0.032197 -0.355317
9  -0.000000 3.703726 0.293188  1.570796 0.013033 1.570789
10  3.307846 0.000035 -0.000023  -0.000001 0.000007 -0.144086
11  3.297955 0.000001 0.000000  0.000000 -0.000000 -0.134140
12  6.040989 -0.000064 -0.000001  0.000000 0.000000 0.326136
13  5.065759 0.000012 -0.000001  3.141590 -0.000000 0.327560
14  3.993761 0.000045 0.000001  -0.000000 -0.000001 0.351494
15  3.815874 1.385498 1.499993  0.859871 -1.058501 -2.529662
16  4.326449 0.001944 -0.074597  -1.259420 -0.145641 -0.882084
17  11.105111 0.000001 0.000004  -0.000002 -0.000002 -0.136592
18  9.862089 0.000014 -0.000027  1.227462 0.165596 0.075027
19  3.243634 0.069193 0.414563  0.324756 0.096800 -0.179594
20  3.380209 -0.289222 1.255768  0.319258 0.065826 -0.159975
21  1.185392 -1.320116 0.783599  1.843607 -0.319633 -0.089629
22  3.815876 1.385499 -1.500000  -0.909418 1.047436 -2.502933
23  4.327095 -0.000008 -0.000005  1.293092 0.212692 -0.875901
24  11.105113 0.000001 0.000001  -0.000003 -0.000000 -0.136589
25  9.862089 -0.000010 0.000012  -1.230754 -0.166037 0.076862
26  3.242871 0.069820 -0.420375  -0.321258 -0.096501 -0.179449
27  3.377816 -0.286101 -1.262902  -0.316149 -0.064145 -0.160196
28  1.183679 -1.317990 -0.789745  -1.840641 0.321752 -0.088886
end
